<svg xmlns="http://www.w3.org/2000/svg" height="225" width="225" style=""><rect id="backgroundrect" width="100%" height="100%" x="0" y="0" fill="none" stroke="none" style="" class=""/><g class="currentLayer" style=""><title>Layer 1</title><path d="m7.804521944045973,112.31382334709167 c0,58.212 47.199,105.412 105.417,105.412 c14.365,0 28.066,-2.8970000000000002 40.547,-8.104 c-14.71,3.415 -22.975,-2.171 -23.775,-4.32 c-1.59,-4.222 10.759,-1.348 -0.8750000000000003,-7.332 c-7.027,-3.617 -10.028,-10.788 -10.794,-13.921 l-2.39,-1.336 c-0.41500000000000015,-0.12100000000000002 -0.7030000000000003,-0.202 -0.6450000000000004,-0.14400000000000004 c0,0 -50.517,-7.113 -53.293,-18.989 c-2.9610000000000003,-12.717 -19.26,-9.67 -19.462,-19.824 c-0.08100000000000004,-5.063 6.053,-3.197 7.5280000000000005,-5.408 c1.832,-2.7880000000000003 -0.6800000000000006,-3.963 -8.346,-8.564 c-20.251,-12.164 -17.313,-31.326 -14.025,-34.316 c2.143,-1.947 4.493,-0.8580000000000003 6.635,0.23600000000000004 c2.108,1.071 4.009,2.142 5.3100000000000005,0.3280000000000002 c2.638,-3.646 -12.314,-24.259 19.277,-47.689 c0,0 3.744,12.078 15.251,16.213 c12.222,4.3950000000000005 -7.603,20.953 -3.295,32.069 c2.436,6.243 7.366,-1.59 11.888,-5.973 c3.882,-3.761 9.238,-13.368 15.965,-11.271 c5.915,1.8490000000000002 3.859,9.607 5.189,13.725 c1.7280000000000002,5.351 6.001,3.669 8.311,8.346 c2.223,4.481 0.6510000000000004,6.353 -6.111,12.187 c-12.331,10.667 -6.451,22.549 -2.966,20.21 c5.207,-3.485 4.233,-7.315 12.666,-7.793 c6.335,-0.35100000000000015 8.512,5.886 6.819,10.385 c-1.711,4.504 -2.707,5.938 -1.6820000000000006,9.175 c2.615,8.265 1.083,5.742 -3.219,13.259 c-3.6750000000000007,6.422 -3.536,12.458 0.7600000000000003,22.727 c8.674,4.406 11.922,1.6760000000000006 15.51,-1.06 c2.845,-2.166 5.892,-4.331 12.026,-2.943 c31.021,7.073 14.163,-3.03 19.439,-8.179 c2.718,-2.6550000000000002 4.792,-2.465 7.263,-2.287 c1.883,0.15000000000000008 4.003,0.28200000000000014 6.802,-0.8350000000000003 c9.572,-6.001 10.488,-8.035 23.102,1.8370000000000002 c10.125,-16.196 16.006,-35.323 16.006,-55.822 c0,-17.843 -4.441,-34.649 -12.274000000000001,-49.377 c-4.389,-4.095 -8.017,-6.635 -6.963,-0.05700000000000002 c0.5870000000000003,3.629 16.61,33.48 -7.43,56.553 c0,0 -0.011000000000000008,-0.24800000000000008 -0.046000000000000034,-0.6340000000000003 c-0.259,-2.736 -1.9060000000000001,-13.443 -11.306000000000001,-14.848 c-11.444,-1.722 -1.941,-19.214 -7.505,-27.375 c-7.85,-11.496 -9.883000000000001,4.285 -12.625,7.741 c-2.8280000000000003,3.531 -14.462,10.108 -14.462,1.037 c0,-10.321 -7.245,-11.611 -10.027,-14.969 c-2.678,-3.22 -1.578,-4.936 3.415,-10.523 c9.152,-10.206 2.575,-16.628 -0.10900000000000004,-14.272 c-4.009,3.502 -3.058,4.268 -10.39,5.84 c-5.506,1.204 -5.247,-8.202 -4.584,-12.037 c3.801,-21.806 -10.713000000000001,-30.105 -31.493,-30.52 c-48.472,9.51 -85.034,52.2 -85.034,103.442 " fill="#ffffff" id="svg_1" class="selected" fill-opacity="1"/><path d="m121.31503576278692,185.94182334709168 s-69.288,-26.897 -71.701,-95.085 c0,0.0010000000000000005 6.698,51.837 71.701,95.085 m-0.513,-178.883 c1.975,0.21900000000000006 16.898,2.206 32.657000000000004,12.262 c5.857,5.489 14.157,18.949 1.353,46.543 c0,0 16.403,-22.14 12.256,-35.583 c13.76,13.806000000000001 25.325,35.686 25.763,70.359 c0,0.0010000000000000005 15.291,-86.871 -72.029,-93.581 m69.256,172.312 c-5.287,3.208 -13.858,10.771 -27.876,6.341 c0,0 5.483,4.228 14.307,3.991 c-11.254,5.817 -23.447,7.205 -42.753,2.373 c0,0 39.084,23.055 66.391,-21.069 c-0.0010000000000000005,0.0010000000000000005 -6.78,6.365 -10.069,8.364 " fill="#ffffff" id="svg_2" class="selected" fill-opacity="1"/></g></svg>