<svg xmlns="http://www.w3.org/2000/svg" xmlns:xlink="http://www.w3.org/1999/xlink" version="1.1" style="enable-background:new 0 0 512 512;" xml:space="preserve" width="512" height="512"><rect id="backgroundrect" width="100%" height="100%" x="0" y="0" fill="none" stroke="none"/>


















<g class="currentLayer" style=""><title>Layer 1</title><g id="svg_1" class="" fill="#ffffff" fill-opacity="1">
	<g id="svg_2" fill="#ffffff" fill-opacity="1">
		<path d="M413.343,97.91625928354263 C371.316,55.88825928354263 315.437,32.743259283542635 256,32.743259283542635 S140.685,55.88825928354263 98.658,97.91625928354263 C56.629,139.94325928354263 33.484,195.82325928354263 33.484,255.25925928354263 c0,59.437 23.145,115.315 65.174,157.343 c42.028,42.028 97.907,65.173 157.342,65.173 s115.316,-23.145 157.343,-65.173 c42.029,-42.028 65.174,-97.907 65.174,-157.343 C478.517,195.82225928354262 455.372,139.94325928354263 413.343,97.91625928354263 zM256,462.5672592835426 c-114.311,0 -207.308,-92.997 -207.308,-207.308 S141.689,47.95125928354263 256,47.95125928354263 s207.309,92.998 207.309,207.309 S370.311,462.5672592835426 256,462.5672592835426 z" id="svg_3" fill="#ffffff" fill-opacity="1"/>
	</g>
</g><g id="svg_4" class="selected" fill="#ffffff" fill-opacity="1">
	<g id="svg_5" fill="#ffffff" fill-opacity="1">
		<path d="M437.02,74.981C388.668,26.629,324.38,0,256,0c-34.471,0-67.922,6.738-99.422,20.025c-3.869,1.632-5.683,6.092-4.05,9.961    c1.633,3.869,6.091,5.685,9.961,4.05C192.107,21.544,223.57,15.208,256,15.208c132.773,0,240.792,108.019,240.792,240.792    S388.773,496.792,256,496.792S15.208,388.773,15.208,256c0-76.164,34.893-146.223,95.732-192.211    c3.35-2.533,4.013-7.301,1.48-10.651c-2.532-3.35-7.301-4.014-10.651-1.48c-30.92,23.372-56.53,53.936-74.063,88.387    C9.322,176.172,0,215.185,0,256c0,68.38,26.629,132.668,74.981,181.019S187.62,512,256,512s132.668-26.629,181.02-74.981    C485.372,388.668,512,324.381,512,256S485.372,123.333,437.02,74.981z" id="svg_6" fill="#ffffff" fill-opacity="1"/>
	</g>
</g><g id="svg_7" class="" fill="#ffffff" fill-opacity="1">
	<g id="svg_8" fill="#ffffff" fill-opacity="1">
		<path d="M338.376,166.02H173.624c-4.199,0-7.604,3.405-7.604,7.604c0,4.199,3.405,7.604,7.604,7.604h157.148v149.545H181.228    v-101.47c0-4.199-3.405-7.604-7.604-7.604c-4.199,0-7.604,3.405-7.604,7.604v109.074c0,4.199,3.405,7.604,7.604,7.604h164.752    c4.199,0,7.604-3.405,7.604-7.604V173.624C345.98,169.424,342.576,166.02,338.376,166.02z" id="svg_9" fill="#ffffff" fill-opacity="1"/>
	</g>
</g><g id="svg_10">
</g><g id="svg_11">
</g><g id="svg_12">
</g><g id="svg_13">
</g><g id="svg_14">
</g><g id="svg_15">
</g><g id="svg_16">
</g><g id="svg_17">
</g><g id="svg_18">
</g><g id="svg_19">
</g><g id="svg_20">
</g><g id="svg_21">
</g><g id="svg_22">
</g><g id="svg_23">
</g><g id="svg_24">
</g></g></svg>